#!OML:ASF H:\Terrain\Patient Classification 1\Walking\liu\liu.ASF
:FULLY-SPECIFIED
:DEGREES
159
root 8.29183 16.4762 -14.5207 7.63111 9.8001 0.137087
lowerback -5.13251 -2.52006 -1.39963
upperback -1.7047 -3.33703 3.26464
thorax 1.39444 -1.66737 3.93616
lowerneck -19.7794 -6.98035 -14.5563
upperneck 15.7041 -8.3433 14.2635
head 9.46728 -3.34534 6.19531
rclavicle 4.08502e-014 -1.11319e-014
rhumerus -46.1373 6.74701 -81.5231
rradius 31.6374
rwrist -18.2945
rhand -35.573 -23.7538
rfingers 7.12502
rthumb -8.69778 -53.5546
lclavicle 4.08502e-014 -1.11319e-014
lhumerus -41.5221 -5.46033 92.4475
lradius 21.035
lwrist -6.49802
lhand -5.00076 -19.4997
lfingers 7.12502
lthumb 20.7927 9.40627
rfemur -32.3523 1.69204 21.9218
rtibia 34.1474
rfoot -11.8605 -0.710787
rtoes -13.3438
lfemur 1.1818 7.79496 -13.884
ltibia 46.4135
lfoot 5.82852 10.205
ltoes -17.9843
160
root 8.27541 16.5083 -14.3994 7.70176 9.86198 0.03336
lowerback -5.03613 -2.42795 -1.32939
upperback -1.6785 -3.21863 3.30821
thorax 1.3569 -1.60794 3.95354
lowerneck -20.0352 -7.10652 -14.4193
upperneck 15.6784 -8.47816 14.0646
head 9.50886 -3.4092 6.07306
rclavicle -3.33461e-014 2.22639e-014
rhumerus -45.9125 7.34729 -81.7307
rradius 32.2515
rwrist -19.6506
rhand -33.5704 -24.8581
rfingers 7.12502
rthumb -6.76485 -54.73
lclavicle -3.33461e-014 2.22639e-014
lhumerus -42.05 -7.38773 93.6445
lradius 21.8192
lwrist -4.28374
lhand -5.44996 -19.4467
lfingers 7.12502
lthumb 20.361 9.5059
rfemur -31.5956 1.69497 22.1675
rtibia 33.4665
rfoot -11.9637 -0.669877
rtoes -13.5725
lfemur -0.578111 7.76841 -14.0255
ltibia 48.6616
lfoot 4.58197 11.4032
ltoes -17.3196
161
root 8.25971 16.5372 -14.2768 7.78798 9.8962 -0.356844
lowerback -4.93932 -2.34259 -1.00377
upperback -1.81227 -3.11853 3.46409
thorax 1.14876 -1.55352 3.94586
lowerneck -19.6591 -7.04659 -14.5975
upperneck 15.5255 -8.42995 14.3018
head 9.40226 -3.38936 6.19823
rclavicle 3.28989e-014 9.54166e-015
rhumerus -45.5532 7.36497 -81.1461
rradius 32.6125
rwrist -17.5841
rhand -28.0424 -27.9979
rfingers 7.12502
rthumb -1.42691 -57.9729
lclavicle 3.28989e-014 9.54166e-015
lhumerus -42.9829 -9.52757 95.1034
lradius 22.9042
lwrist -1.37088
lhand -3.7389 -18.6089
lfingers 7.12502
lthumb 22.0047 10.1594
rfemur -30.8394 1.63273 22.7575
rtibia 32.7106
rfoot -11.961 -0.51118
rtoes -12.7765
lfemur -2.37084 7.8615 -13.8483
ltibia 50.7717
lfoot 3.53202 11.9919
ltoes -17.5004
162
root 8.24305 16.5734 -14.1558 7.99293 9.79857 -0.533006
lowerback -4.90685 -2.20766 -0.927662
upperback -1.99574 -2.93828 3.58621
thorax 0.930468 -1.45846 4.0471
lowerneck -18.863 -6.98423 -15.0364
upperneck 15.0361 -8.38206 14.7912
head 9.13104 -3.37929 6.45475
rclavicle 1.83876e-014 -5.56597e-015
rhumerus -45.4917 8.16355 -81.3117
rradius 33.0743
rwrist -17.6136
rhand -27.5779 -29.7046
rfingers 7.12502
rthumb -0.978265 -59.6821
lclavicle 1.83876e-014 -5.56597e-015
lhumerus -43.8621 -10.2202 95.8415
lradius 23.9319
lwrist -0.103363
lhand -1.26201 -17.8471
lfingers 7.12502
lthumb 24.381 10.6218
rfemur -30.1552 1.43335 23.1566
rtibia 31.88
rfoot -12.1002 -0.16136
rtoes -13.5363
lfemur -4.18363 7.99647 -13.9494
ltibia 52.6421
lfoot 2.48775 12.5706
ltoes -16.137
163
root 8.22926 16.6107 -14.0339 8.16814 9.6865 -0.720423
lowerback -5.02286 -2.03316 -0.732397
upperback -1.99019 -2.71539 3.58917
thorax 0.974717 -1.34756 3.94971
lowerneck -18.5996 -7.02721 -15.1065
upperneck 14.6736 -8.47255 15.0358
head 8.99298 -3.41434 6.53462
rclavicle 3.60297e-014 -7.95139e-015
rhumerus -45.2086 8.65175 -81.5253
rradius 33.2742
rwrist -18.1265
rhand -28.0664 -28.7822
rfingers 7.12502
rthumb -1.45006 -58.757
lclavicle 3.60297e-014 -7.95139e-015
lhumerus -44.4565 -11.1407 96.4025
lradius 24.8871
lwrist 1.35588
lhand -0.454373 -17.8336
lfingers 7.12502
lthumb 25.1551 10.529
rfemur -29.4704 1.23328 23.5451
rtibia 31.0438
rfoot -12.4074 0.262309
rtoes -14.946
lfemur -5.87019 8.07046 -14.0811
ltibia 54.2525
lfoot 2.51013 13.1915
ltoes -10.5354
164
root 8.22485 16.6427 -13.9044 7.93025 9.52138 -0.97471
lowerback -4.94052 -1.83406 -0.337985
upperback -1.76372 -2.47204 3.49191
thorax 1.12303 -1.22994 3.63966
lowerneck -18.7229 -7.10512 -14.6598
upperneck 14.5635 -8.63752 14.8482
head 8.97448 -3.47835 6.3591
rclavicle 3.72224e-014 -3.81667e-014
rhumerus -44.9958 9.01379 -81.6686
rradius 33.8355
rwrist -18.5511
rhand -28.2749 -27.4937
rfingers 7.12502
rthumb -1.65139 -57.4671
lclavicle 3.72224e-014 -3.81667e-014
lhumerus -44.9553 -12.1554 96.7779
lradius 25.8722
lwrist 3.15312
lhand -0.623125 -18.2887
lfingers 7.12502
lthumb 24.9934 10.0964
rfemur -28.344 1.205 23.943
rtibia 30.3093
rfoot -12.8106 0.619138
rtoes -14.9684
lfemur -7.00657 8.13388 -14.1502
ltibia 55.5701
lfoot 5.24783 13.6031
ltoes 2.22754
165
root 8.21964 16.6696 -13.7752 7.57564 9.27781 -1.09318
lowerback -4.58039 -1.61222 -0.201933
upperback -1.64723 -2.17981 3.48779
thorax 1.0172 -1.08396 3.58479
lowerneck -18.6444 -7.21073 -14.5694
upperneck 14.5916 -8.79172 14.6921
head 8.98202 -3.56274 6.26355
rclavicle -2.54444e-014 2.3059e-014
rhumerus -45.1634 9.62268 -81.6378
rradius 34.923
rwrist -19.0166
rhand -28.3185 -26.6449
rfingers 7.12502
rthumb -1.69352 -56.6179
lclavicle -2.54444e-014 2.3059e-014
lhumerus -45.4629 -12.722 97.1754
lradius 26.6379
lwrist 4.35162
lhand -0.828752 -18.6386
lfingers 7.12502
lthumb 24.7963 9.77387
rfemur -27.1207 1.28124 24.1873
rtibia 29.659
rfoot -13.1264 0.848233
rtoes -14.7226
lfemur -8.02459 8.17899 -14.3492
ltibia 56.6923
lfoot 1.73682 13.1541
ltoes -13.4446
166
root 8.20651 16.6946 -13.6532 7.56201 9.02781 -0.992849
lowerback -4.38681 -1.42224 -0.403468
upperback -1.68148 -1.91425 3.524
thorax 0.864417 -0.949105 3.75663
lowerneck -18.5768 -7.26848 -14.891
upperneck 14.7186 -8.82828 14.7969
head 9.04004 -3.59068 6.35471
rclavicle -3.47873e-014 -2.3059e-014
rhumerus -45.244 10.2731 -81.5389
rradius 35.8684
rwrist -19.3262
rhand -28.6394 -25.2255
rfingers 7.12502
rthumb -2.00348 -55.1958
lclavicle -3.47873e-014 -2.3059e-014
lhumerus -45.8935 -13.1598 97.6515
lradius 27.2524
lwrist 5.28085
lhand -0.92864 -18.9439
lfingers 7.12502
lthumb 24.7006 9.48164
rfemur -26.3037 1.39662 24.2058
rtibia 29.0553
rfoot -13.3502 0.992172
rtoes -15.3779
lfemur -9.42202 8.19756 -14.8077
ltibia 57.7151
lfoot 0.0850987 12.7036
ltoes -16.2202
167
root 8.19603 16.7151 -13.5336 7.71125 8.78723 -1.03217
lowerback -4.51212 -1.27252 -0.372481
upperback -1.64747 -1.71861 3.52727
thorax 0.955086 -0.852272 3.75005
lowerneck -18.6787 -7.27738 -15.0469
upperneck 14.6684 -8.81446 14.975
head 9.05673 -3.57256 6.44648
rclavicle -3.47376e-014 1.59028e-015
rhumerus -44.8276 10.9159 -81.6254
rradius 36.3026
rwrist -19.581
rhand -29.307 -24.2517
rfingers 7.12502
rthumb -2.64823 -54.215
lclavicle -3.47376e-014 1.59028e-015
lhumerus -46.1333 -13.2368 97.725
lradius 27.869
lwrist 5.96956
lhand -0.867805 -19.1379
lfingers 7.12502
lthumb 24.7589 9.27968
rfemur -25.6969 1.51796 24.3667
rtibia 28.5281
rfoot -13.5621 1.18448
rtoes -15.5218
lfemur -10.9848 8.34186 -15.1298
ltibia 58.7108
lfoot -0.926786 12.2798
ltoes -12.8831
168
root 8.18557 16.733 -13.4155 7.84447 8.6578 -1.41526
lowerback -4.66429 -1.1182 -0.000775438
upperback -1.6096 -1.53314 3.58369
thorax 1.05824 -0.76063 3.60566
lowerneck -18.6369 -7.29682 -14.9314
upperneck 14.4099 -8.87185 15.075
head 8.97195 -3.58619 6.44785
rclavicle -1.77912e-014 -8.74653e-015
rhumerus -44.1733 11.2726 -81.6334
rradius 36.4952
rwrist -19.7755
rhand -29.6493 -24.5248
rfingers 7.12502
rthumb -2.97877 -54.4837
lclavicle -1.77912e-014 -8.74653e-015
lhumerus -46.3926 -13.7075 97.8693
lradius 28.5854
lwrist 6.98846
lhand -0.821495 -19.0173
lfingers 7.12502
lthumb 24.8033 9.39418
rfemur -25.1658 1.70007 24.891
rtibia 28.0921
rfoot -13.7708 1.23202
rtoes -14.9413
lfemur -12.6227 8.49591 -15.0409
ltibia 59.6602
lfoot -1.85839 11.652
ltoes -11.4899
